<svg width="80" height="80" fill="none" xmlns="http://www.w3.org/2000/svg"><g clip-path="url(#clip0)"><path fill-rule="evenodd" clip-rule="evenodd" d="M70.335 29.688l9.208-9.208a1.563 1.563 0 00-.645-2.598l-22.421-6.92A15.592 15.592 0 0041.562 0a15.63 15.63 0 00-14.494 9.785l-25.97 8.099a1.563 1.563 0 00-.64 2.596l9.45 9.45-5.96 9.934a1.563 1.563 0 00.845 2.286l8.644 2.881v24.032c0 .65.404 1.234 1.014 1.463l6.043 2.266c7.762 2.91 18.907 7.09 18.986 7.118.31.11.66.124 1 .014h.003l.004-.002.007-.002 28.125-9.375a1.562 1.562 0 001.068-1.482V44.388l9.219-2.897a1.562 1.562 0 00.636-2.596l-9.207-9.207zM57.187 15.625c0-.397-.016-.793-.046-1.188l18.358 5.667-7.796 7.796-12.739-4.246a15.67 15.67 0 002.223-8.029zm-27.449-4.067a12.504 12.504 0 0111.824-8.433 12.475 12.475 0 0112.5 12.5c0 2.902-.963 5.623-2.785 7.868a12.455 12.455 0 01-9.715 4.632 12.511 12.511 0 01-10.27-5.375 12.408 12.408 0 01-2.23-7.125c0-1.395.228-2.764.676-4.067zm-25.244 8.54l21.61-6.738a15.758 15.758 0 00-.167 2.265c0 2.516.596 4.953 1.732 7.151L12.297 27.9l-7.803-7.802zM7.63 39.8l4.94-8.235 25.089 8.363-4.94 8.235-3.192-1.064L7.629 39.8zm30.808 36.382L16.562 67.98V46.073a3358.575 3358.575 0 0113.257 4.422c3.095 1.04 3.301 1.108 3.508 1.11h.085c.537 0 1.052-.278 1.34-.759l3.685-6.142v31.48zM40 37.416l-23.184-7.728L29.44 25.48a15.635 15.635 0 0012.122 5.77 15.56 15.56 0 0011.421-4.962l10.2 3.4L40 37.416zm1.562 38.854V43.517l5.54 6.923a1.563 1.563 0 001.688.515l17.772-5.585v22.566l-25 8.334zm7.312-28.617l-6.254-7.817 25.083-8.36 7.807 7.806-26.636 8.37zm-24.5 10.16a1.563 1.563 0 10.002 3.126 1.563 1.563 0 00-.001-3.126zm6.45 2.165l3.475 1.303a1.563 1.563 0 01-1.098 2.926l-3.475-1.303a1.562 1.562 0 111.098-2.926zm3.474 7.978l-9.375-3.516a1.563 1.563 0 00-1.097 2.926l9.375 3.516a1.56 1.56 0 002.012-.914 1.562 1.562 0 00-.915-2.012zM48.27 9.833a1.563 1.563 0 012.21 2.21l-9.375 9.375c-.61.61-1.6.61-2.21 0l-3.125-3.125a1.563 1.563 0 112.21-2.21l2.02 2.02 8.27-8.27z" fill="url(#paint0_linear)"/></g><defs><linearGradient id="paint0_linear" x1="43.125" y1="9.375" x2="66.224" y2="13.077" gradientUnits="userSpaceOnUse"><stop stop-color="#02B36F"/><stop offset="1" stop-color="#008DD2"/></linearGradient><clipPath id="clip0"><path fill="#fff" d="M0 0h80v80H0z"/></clipPath></defs></svg>